<svg width="30" height="31" viewBox="0 0 30 31" fill="none" xmlns="http://www.w3.org/2000/svg">
<path fill-rule="evenodd" clip-rule="evenodd" d="M26 1C26 0.447715 25.5523 0 25 0H1C0.447715 0 0 0.447716 0 1V30C0 30.5523 0.447716 31 1 31H25C25.5523 31 26 30.5523 26 30V30C26 29.4477 25.5523 29 25 29H5C4.44772 29 4 28.5523 4 28V3C4 2.44771 4.44772 2 5 2H25C25.5523 2 26 1.55228 26 1V1Z" fill="white"/>
<path d="M29.0607 16.0607C29.6464 15.4749 29.6464 14.5251 29.0607 13.9393L19.5147 4.3934C18.9289 3.80761 17.9792 3.80761 17.3934 4.3934C16.8076 4.97918 16.8076 5.92893 17.3934 6.51472L25.8787 15L17.3934 23.4853C16.8076 24.0711 16.8076 25.0208 17.3934 25.6066C17.9792 26.1924 18.9289 26.1924 19.5147 25.6066L29.0607 16.0607ZM8 16.5H28V13.5H8V16.5Z" fill="white"/>
</svg>
