<svg width="47" height="47" viewBox="0 0 47 47" fill="none" xmlns="http://www.w3.org/2000/svg">
<path fill-rule="evenodd" clip-rule="evenodd" d="M19 2C19 0.895431 19.8954 0 21 0H25C26.1046 0 27 0.895431 27 2V5.44603C25.7136 5.15412 24.3748 5 23 5C21.6252 5 20.2864 5.15412 19 5.44603V2ZM20.2346 10.8483C19.5098 10.5478 19 9.83345 19 9V5.44603C16.9906 5.90199 15.1088 6.69413 13.417 7.76019L11.0711 5.41421C10.29 4.63316 9.02369 4.63316 8.24264 5.41421L5.41421 8.24264C4.63316 9.02369 4.63316 10.29 5.41421 11.0711L7.76019 13.417C6.69413 15.1088 5.90199 16.9906 5.44603 19H2C0.895431 19 0 19.8954 0 21V25C0 26.1046 0.895431 27 2 27H5.44603C5.92593 29.1149 6.77823 31.0884 7.93035 32.8478L5.41421 35.364C4.63316 36.145 4.63316 37.4113 5.41421 38.1924L8.24263 41.0208C9.02368 41.8019 10.29 41.8019 11.0711 41.0208L13.6859 38.406C15.3074 39.3884 17.0964 40.122 19 40.554V45C19 46.1046 19.8954 47 21 47H25C26.1046 47 27 46.1046 27 45V40.554C29.0094 40.098 30.8912 39.3059 32.583 38.2398L35.364 41.0208C36.145 41.8019 37.4113 41.8019 38.1924 41.0208L41.0208 38.1924C41.8019 37.4113 41.8019 36.145 41.0208 35.364L38.2398 32.583C39.3059 30.8912 40.098 29.0094 40.554 27H45C46.1046 27 47 26.1046 47 25V21C47 19.8954 46.1046 19 45 19H40.554C40.122 17.0964 39.3884 15.3074 38.406 13.6859L41.0208 11.0711C41.8019 10.29 41.8019 9.02369 41.0208 8.24264L38.1924 5.41421C37.4113 4.63316 36.145 4.63316 35.364 5.41421L32.8478 7.93035C31.0884 6.77823 29.1149 5.92593 27 5.44603V9C27 9.75772 26.5786 10.417 25.9574 10.7564V9C25.9574 7.89543 25.062 7 23.9574 7H22.3404C21.2359 7 20.3404 7.89543 20.3404 9V10.8238C20.3051 10.8318 20.2698 10.84 20.2346 10.8483ZM20.3404 10.8887C20.3047 10.8762 20.2694 10.8627 20.2346 10.8483C18.8988 11.1636 17.6449 11.6908 16.5103 12.3925C16.7328 11.7012 16.5696 10.9128 16.0208 10.364L13.417 7.76019C11.1348 9.19828 9.19829 11.1348 7.76019 13.417L10.364 16.0208C10.9128 16.5696 11.7012 16.7328 12.3925 16.5103C11.6908 17.6449 11.1636 18.8988 10.8483 20.2346C10.5478 19.5098 9.83345 19 9 19H5.44603C5.15412 20.2864 5 21.6252 5 23C5 24.3748 5.15412 25.7136 5.44603 27H9C9.75771 27 10.417 26.5786 10.7564 25.9574H10.8238C11.1518 27.4028 11.7274 28.754 12.5038 29.9642C11.7872 29.6857 10.9425 29.8357 10.364 30.4142L7.93035 32.8478C9.40719 35.1032 11.3767 37.0068 13.6859 38.406L16.0208 36.0711C16.5652 35.5267 16.7301 34.7467 16.5157 34.0594L16.6093 33.9659C17.7477 34.6557 19.0039 35.1708 20.3404 35.4741V36.1113C19.5599 36.3839 19 37.1265 19 38V40.554C20.2864 40.8459 21.6252 41 23 41C24.3748 41 25.7136 40.8459 27 40.554V38C27 37.2423 26.5786 36.583 25.9574 36.2436V35.4741C27.3683 35.1539 28.6895 34.5977 29.8774 33.8492L29.9628 33.9347C29.6862 34.6505 29.8366 35.4935 30.4142 36.0711L32.583 38.2398C34.8652 36.8017 36.8017 34.8652 38.2398 32.583L36.0711 30.4142C35.4935 29.8366 34.6505 29.6862 33.9347 29.9628L33.8492 29.8774C34.5977 28.6895 35.1539 27.3683 35.4741 25.9574H36.2436C36.583 26.5786 37.2423 27 38 27H40.554C40.8459 25.7136 41 24.3748 41 23C41 21.6252 40.8459 20.2864 40.554 19H38C37.1265 19 36.3839 19.5599 36.1113 20.3404H35.4741C35.1708 19.0039 34.6557 17.7478 33.9659 16.6093L34.0594 16.5157C34.7466 16.7301 35.5267 16.5652 36.0711 16.0208L38.406 13.6859C37.0068 11.3767 35.1032 9.40719 32.8478 7.93035L30.4142 10.364C29.8357 10.9425 29.6857 11.7872 29.9642 12.5038C28.754 11.7274 27.4028 11.1518 25.9574 10.8238V10.7564C25.9274 10.7728 25.8968 10.7885 25.8658 10.8034C24.9907 10.6117 24.0816 10.5106 23.1489 10.5106C22.1837 10.5106 21.2437 10.6189 20.3404 10.8238V10.8887ZM20.3404 10.8887C20.5469 10.9608 20.7689 11 21 11H25C25.3102 11 25.6038 10.9294 25.8658 10.8034L25.9111 10.8134L25.9574 10.8238V12.7234C25.9574 13.828 25.062 14.7234 23.9574 14.7234H22.3404C21.2359 14.7234 20.3404 13.828 20.3404 12.7234V10.8887ZM30.0634 12.5681L31.4088 11.2227C32.1898 10.4417 33.4561 10.4417 34.2372 11.2227L35.3806 12.3661C36.1616 13.1472 36.1616 14.4135 35.3806 15.1946L34.0594 16.5157C33.9931 16.495 33.9277 16.4708 33.8634 16.4431C32.8914 14.8933 31.5925 13.5694 30.0634 12.5681ZM30.0129 12.6185C29.9954 12.5807 29.9792 12.5425 29.9642 12.5038C29.9973 12.5251 30.0304 12.5465 30.0634 12.5681L30.0129 12.6185ZM30.0129 12.6185C30.1091 12.8263 30.2429 13.021 30.4142 13.1924L33.2426 16.0208C33.4268 16.205 33.638 16.3458 33.8634 16.4431C33.898 16.4982 33.9321 16.5536 33.9659 16.6093L32.7477 17.8274C31.9667 18.6085 30.7004 18.6085 29.9193 17.8274L28.7759 16.684C27.9949 15.9029 27.9949 14.6366 28.7759 13.8556L30.0129 12.6185ZM36.1113 20.3404H38C39.1046 20.3404 40 21.2359 40 22.3404V23.9574C40 25.062 39.1046 25.9574 38 25.9574H36.2436C36.0883 25.6731 36 25.3469 36 25V21C36 20.7689 36.0392 20.5469 36.1113 20.3404ZM35.4741 20.3404H34.2766C33.172 20.3404 32.2766 21.2359 32.2766 22.3404V23.9574C32.2766 25.062 33.172 25.9574 34.2766 25.9574H35.4741C35.679 25.0542 35.7872 24.1142 35.7872 23.1489C35.7872 22.1837 35.679 21.2437 35.4741 20.3404ZM33.7374 30.0517C33.8018 30.0183 33.8677 29.9887 33.9347 29.9628L35.3806 31.4088C36.1616 32.1898 36.1616 33.4561 35.3806 34.2372L34.2372 35.3806C33.4561 36.1616 32.1898 36.1616 31.4088 35.3806L29.9628 33.9347C29.9887 33.8677 30.0183 33.8018 30.0517 33.7374C31.5207 32.7778 32.7778 31.5207 33.7374 30.0517ZM33.7374 30.0517C33.7751 29.9939 33.8124 29.9358 33.8492 29.8774L32.7477 28.7759C31.9667 27.9949 30.7004 27.9949 29.9193 28.7759L28.7759 29.9193C27.9949 30.7004 27.9949 31.9667 28.7759 32.7477L29.8774 33.8492C29.9358 33.8124 29.9939 33.7751 30.0517 33.7374C30.144 33.5592 30.2648 33.3921 30.4142 33.2426L33.2426 30.4142C33.3921 30.2648 33.5592 30.144 33.7374 30.0517ZM25.9574 36.2436V38C25.9574 39.1046 25.062 40 23.9574 40H22.3404C21.2359 40 20.3404 39.1046 20.3404 38V36.1113C20.5469 36.0392 20.7689 36 21 36H25C25.3469 36 25.6731 36.0883 25.9574 36.2436ZM25.9574 35.4741V34.2766C25.9574 33.172 25.062 32.2766 23.9574 32.2766H22.3404C21.2359 32.2766 20.3404 33.172 20.3404 34.2766V35.4741C21.2437 35.679 22.1837 35.7872 23.1489 35.7872C24.1142 35.7872 25.0542 35.679 25.9574 35.4741ZM16.4431 33.8634C16.4982 33.898 16.5536 33.9321 16.6093 33.9659L17.8274 32.7477C18.6084 31.9667 18.6084 30.7004 17.8274 29.9193L16.684 28.7759C15.9029 27.9949 14.6366 27.9949 13.8556 28.7759L12.6185 30.0129C12.5807 29.9954 12.5424 29.9792 12.5038 29.9642C12.5251 29.9973 12.5465 30.0304 12.5681 30.0634L11.2227 31.4088C10.4417 32.1898 10.4417 33.4561 11.2227 34.2372L12.3661 35.3806C13.1472 36.1616 14.4135 36.1616 15.1945 35.3806L16.5157 34.0594C16.495 33.9931 16.4708 33.9277 16.4431 33.8634ZM16.4431 33.8634C14.8933 32.8914 13.5694 31.5925 12.5681 30.0634L12.6185 30.0129C12.8263 30.1091 13.021 30.2429 13.1924 30.4142L16.0208 33.2426C16.205 33.4268 16.3457 33.638 16.4431 33.8634ZM10.8034 25.8658C10.8101 25.8964 10.8169 25.927 10.8238 25.9574H12.7234C13.828 25.9574 14.7234 25.062 14.7234 23.9574V22.3404C14.7234 21.2359 13.828 20.3404 12.7234 20.3404H10.8887C10.8762 20.3047 10.8627 20.2694 10.8483 20.2346C10.84 20.2698 10.8318 20.3051 10.8238 20.3404H9C7.89543 20.3404 7 21.2359 7 22.3404V23.9574C7 25.062 7.89543 25.9574 9 25.9574H10.7564C10.7728 25.9274 10.7885 25.8968 10.8034 25.8658ZM10.8034 25.8658C10.6117 24.9907 10.5106 24.0816 10.5106 23.1489C10.5106 22.1837 10.6189 21.2437 10.8238 20.3404H10.8887C10.9608 20.5469 11 20.7689 11 21V25C11 25.3102 10.9294 25.6038 10.8034 25.8658ZM12.4487 16.4205C12.4298 16.4503 12.4111 16.4803 12.3925 16.5103C12.4288 16.4987 12.4647 16.486 12.5004 16.4722L13.8556 17.8274C14.6366 18.6084 15.903 18.6084 16.684 17.8274L17.8274 16.684C18.6085 15.9029 18.6085 14.6366 17.8274 13.8556L16.4722 12.5004C16.486 12.4647 16.4987 12.4288 16.5103 12.3925C16.4803 12.4111 16.4504 12.4298 16.4205 12.4486L15.1946 11.2227C14.4135 10.4417 13.1472 10.4417 12.3661 11.2227L11.2227 12.3661C10.4417 13.1472 10.4417 14.4135 11.2227 15.1946L12.4487 16.4205ZM12.4487 16.4205L12.5004 16.4722C12.7525 16.3747 12.9889 16.2243 13.1924 16.0208L16.0208 13.1924C16.2243 12.9889 16.3747 12.7525 16.4722 12.5004L16.4205 12.4486C14.8181 13.4584 13.4584 14.8181 12.4487 16.4205Z" fill="white"/>
</svg>
